<mxfile host="app.diagrams.net" agent="Mozilla/5.0 (Windows NT 10.0; Win64; x64) AppleWebKit/537.36 (KHTML, like Gecko) Chrome/136.0.0.0 Safari/537.36" version="27.0.1">
  <diagram name="第 1 页" id="qoy0FfVa06EEqeZlpLUw">
    <mxGraphModel dx="983" dy="525" grid="1" gridSize="10" guides="1" tooltips="1" connect="1" arrows="1" fold="1" page="1" pageScale="1" pageWidth="827" pageHeight="1169" math="1" shadow="0">
      <root>
        <mxCell id="0" />
        <mxCell id="1" parent="0" />
        <mxCell id="y7PeoEtyBzaCK5qJtURC-31" value="" style="rounded=0;whiteSpace=wrap;html=1;fillColor=none;strokeColor=default;dashed=1;fontSize=15;" vertex="1" parent="1">
          <mxGeometry x="380" y="410" width="170" height="280" as="geometry" />
        </mxCell>
        <mxCell id="y7PeoEtyBzaCK5qJtURC-30" value="" style="rounded=0;whiteSpace=wrap;html=1;fillColor=none;strokeColor=default;dashed=1;fontSize=15;" vertex="1" parent="1">
          <mxGeometry x="172.5" y="410" width="155" height="130" as="geometry" />
        </mxCell>
        <mxCell id="y7PeoEtyBzaCK5qJtURC-2" value="Fully-Connection" style="rounded=1;whiteSpace=wrap;html=1;fontSize=15;fillColor=#dae8fc;strokeColor=#6c8ebf;" vertex="1" parent="1">
          <mxGeometry x="410" y="450" width="120" height="60" as="geometry" />
        </mxCell>
        <mxCell id="y7PeoEtyBzaCK5qJtURC-3" value="Multi-Head&amp;nbsp;&lt;div&gt;Attention&lt;/div&gt;&lt;div&gt;&lt;br&gt;&lt;/div&gt;" style="rounded=1;whiteSpace=wrap;html=1;fontSize=15;fillColor=#ffe6cc;strokeColor=#d79b00;" vertex="1" parent="1">
          <mxGeometry x="410" y="570" width="120" height="60" as="geometry" />
        </mxCell>
        <mxCell id="y7PeoEtyBzaCK5qJtURC-4" value="" style="shape=orEllipse;perimeter=ellipsePerimeter;whiteSpace=wrap;html=1;backgroundOutline=1;aspect=fixed;fontSize=15;" vertex="1" parent="1">
          <mxGeometry x="460" y="530" width="20" height="20" as="geometry" />
        </mxCell>
        <mxCell id="y7PeoEtyBzaCK5qJtURC-5" value="" style="shape=orEllipse;perimeter=ellipsePerimeter;whiteSpace=wrap;html=1;backgroundOutline=1;aspect=fixed;fontSize=15;" vertex="1" parent="1">
          <mxGeometry x="460" y="410" width="20" height="20" as="geometry" />
        </mxCell>
        <mxCell id="y7PeoEtyBzaCK5qJtURC-6" value="" style="endArrow=blockThin;html=1;rounded=0;exitX=0.5;exitY=0;exitDx=0;exitDy=0;entryX=0.5;entryY=1;entryDx=0;entryDy=0;endFill=1;fontSize=15;" edge="1" parent="1" source="y7PeoEtyBzaCK5qJtURC-3" target="y7PeoEtyBzaCK5qJtURC-2">
          <mxGeometry width="50" height="50" relative="1" as="geometry">
            <mxPoint x="240" y="520" as="sourcePoint" />
            <mxPoint x="290" y="470" as="targetPoint" />
          </mxGeometry>
        </mxCell>
        <mxCell id="y7PeoEtyBzaCK5qJtURC-7" value="" style="endArrow=blockThin;html=1;rounded=0;exitX=0.5;exitY=0;exitDx=0;exitDy=0;endFill=1;fontSize=15;" edge="1" parent="1" source="y7PeoEtyBzaCK5qJtURC-2">
          <mxGeometry width="50" height="50" relative="1" as="geometry">
            <mxPoint x="480" y="580" as="sourcePoint" />
            <mxPoint x="470" y="390" as="targetPoint" />
          </mxGeometry>
        </mxCell>
        <mxCell id="y7PeoEtyBzaCK5qJtURC-8" value="" style="endArrow=blockThin;html=1;rounded=0;endFill=1;entryX=0;entryY=0.5;entryDx=0;entryDy=0;fontSize=15;" edge="1" parent="1" target="y7PeoEtyBzaCK5qJtURC-4">
          <mxGeometry width="50" height="50" relative="1" as="geometry">
            <mxPoint x="430" y="650" as="sourcePoint" />
            <mxPoint x="360" y="500" as="targetPoint" />
            <Array as="points">
              <mxPoint x="400" y="650" />
              <mxPoint x="400" y="540" />
            </Array>
          </mxGeometry>
        </mxCell>
        <mxCell id="y7PeoEtyBzaCK5qJtURC-9" value="" style="endArrow=blockThin;html=1;rounded=0;entryX=0.5;entryY=1;entryDx=0;entryDy=0;endFill=1;fontSize=15;" edge="1" parent="1">
          <mxGeometry width="50" height="50" relative="1" as="geometry">
            <mxPoint x="430" y="660" as="sourcePoint" />
            <mxPoint x="430" y="630" as="targetPoint" />
          </mxGeometry>
        </mxCell>
        <mxCell id="y7PeoEtyBzaCK5qJtURC-10" value="" style="endArrow=blockThin;html=1;rounded=0;entryX=0.5;entryY=1;entryDx=0;entryDy=0;endFill=1;exitX=0.5;exitY=0;exitDx=0;exitDy=0;fontSize=15;" edge="1" parent="1" source="y7PeoEtyBzaCK5qJtURC-13">
          <mxGeometry width="50" height="50" relative="1" as="geometry">
            <mxPoint x="469.92" y="660" as="sourcePoint" />
            <mxPoint x="469.92" y="630" as="targetPoint" />
            <Array as="points">
              <mxPoint x="510" y="650" />
              <mxPoint x="470" y="650" />
            </Array>
          </mxGeometry>
        </mxCell>
        <mxCell id="y7PeoEtyBzaCK5qJtURC-11" value="" style="endArrow=blockThin;html=1;rounded=0;entryX=0.5;entryY=1;entryDx=0;entryDy=0;endFill=1;fontSize=15;" edge="1" parent="1">
          <mxGeometry width="50" height="50" relative="1" as="geometry">
            <mxPoint x="510" y="660" as="sourcePoint" />
            <mxPoint x="510" y="630" as="targetPoint" />
          </mxGeometry>
        </mxCell>
        <mxCell id="y7PeoEtyBzaCK5qJtURC-12" value="aspect" style="text;html=1;align=center;verticalAlign=middle;whiteSpace=wrap;rounded=0;fontSize=15;" vertex="1" parent="1">
          <mxGeometry x="405" y="660" width="50" height="20" as="geometry" />
        </mxCell>
        <mxCell id="y7PeoEtyBzaCK5qJtURC-13" value="text" style="text;html=1;align=center;verticalAlign=middle;whiteSpace=wrap;rounded=0;fontSize=15;" vertex="1" parent="1">
          <mxGeometry x="485" y="660" width="50" height="20" as="geometry" />
        </mxCell>
        <mxCell id="y7PeoEtyBzaCK5qJtURC-14" value="Q" style="text;html=1;align=center;verticalAlign=middle;whiteSpace=wrap;rounded=0;fontSize=15;" vertex="1" parent="1">
          <mxGeometry x="422" y="613" width="16" height="19" as="geometry" />
        </mxCell>
        <mxCell id="y7PeoEtyBzaCK5qJtURC-15" value="K" style="text;html=1;align=center;verticalAlign=middle;whiteSpace=wrap;rounded=0;fontSize=15;" vertex="1" parent="1">
          <mxGeometry x="462" y="613" width="16" height="19" as="geometry" />
        </mxCell>
        <mxCell id="y7PeoEtyBzaCK5qJtURC-16" value="V" style="text;html=1;align=center;verticalAlign=middle;whiteSpace=wrap;rounded=0;fontSize=15;" vertex="1" parent="1">
          <mxGeometry x="502" y="614" width="16" height="19" as="geometry" />
        </mxCell>
        <mxCell id="y7PeoEtyBzaCK5qJtURC-17" value="" style="endArrow=blockThin;html=1;rounded=0;endFill=1;entryX=0;entryY=0.5;entryDx=0;entryDy=0;fontSize=15;" edge="1" parent="1">
          <mxGeometry width="50" height="50" relative="1" as="geometry">
            <mxPoint x="470" y="520" as="sourcePoint" />
            <mxPoint x="460" y="420" as="targetPoint" />
            <Array as="points">
              <mxPoint x="400" y="520" />
              <mxPoint x="400" y="420" />
            </Array>
          </mxGeometry>
        </mxCell>
        <mxCell id="y7PeoEtyBzaCK5qJtURC-18" value="$$H_{A \rightarrow S}$$" style="text;html=1;align=center;verticalAlign=middle;whiteSpace=wrap;rounded=0;fontSize=15;" vertex="1" parent="1">
          <mxGeometry x="450.5" y="370" width="39" height="20" as="geometry" />
        </mxCell>
        <mxCell id="y7PeoEtyBzaCK5qJtURC-19" value="Multi-Head&amp;nbsp;&lt;div&gt;Attention&lt;/div&gt;&lt;div&gt;&lt;br&gt;&lt;/div&gt;" style="rounded=1;whiteSpace=wrap;html=1;fontSize=15;fillColor=#ffe6cc;strokeColor=#d79b00;" vertex="1" parent="1">
          <mxGeometry x="190" y="420" width="120" height="60" as="geometry" />
        </mxCell>
        <mxCell id="y7PeoEtyBzaCK5qJtURC-20" value="K" style="text;html=1;align=center;verticalAlign=middle;whiteSpace=wrap;rounded=0;fontSize=15;" vertex="1" parent="1">
          <mxGeometry x="202" y="464" width="16" height="19" as="geometry" />
        </mxCell>
        <mxCell id="y7PeoEtyBzaCK5qJtURC-21" value="K" style="text;html=1;align=center;verticalAlign=middle;whiteSpace=wrap;rounded=0;fontSize=15;" vertex="1" parent="1">
          <mxGeometry x="242" y="464" width="16" height="19" as="geometry" />
        </mxCell>
        <mxCell id="y7PeoEtyBzaCK5qJtURC-22" value="Q" style="text;html=1;align=center;verticalAlign=middle;whiteSpace=wrap;rounded=0;fontSize=15;" vertex="1" parent="1">
          <mxGeometry x="282" y="465" width="16" height="19" as="geometry" />
        </mxCell>
        <mxCell id="y7PeoEtyBzaCK5qJtURC-23" value="Image" style="text;html=1;align=center;verticalAlign=middle;whiteSpace=wrap;rounded=0;fontSize=15;" vertex="1" parent="1">
          <mxGeometry x="185" y="510" width="50" height="20" as="geometry" />
        </mxCell>
        <mxCell id="y7PeoEtyBzaCK5qJtURC-24" value="" style="endArrow=blockThin;html=1;rounded=0;endFill=1;entryX=0.5;entryY=0.789;entryDx=0;entryDy=0;entryPerimeter=0;fontSize=15;" edge="1" parent="1" target="y7PeoEtyBzaCK5qJtURC-22">
          <mxGeometry width="50" height="50" relative="1" as="geometry">
            <mxPoint x="470" y="400" as="sourcePoint" />
            <mxPoint x="318" y="470" as="targetPoint" />
            <Array as="points">
              <mxPoint x="360" y="400" />
              <mxPoint x="360" y="500" />
              <mxPoint x="290" y="500" />
            </Array>
          </mxGeometry>
        </mxCell>
        <mxCell id="y7PeoEtyBzaCK5qJtURC-25" value="" style="endArrow=blockThin;html=1;rounded=0;endFill=1;entryX=0.49;entryY=0.86;entryDx=0;entryDy=0;entryPerimeter=0;exitX=0.5;exitY=0;exitDx=0;exitDy=0;fontSize=15;" edge="1" parent="1" source="y7PeoEtyBzaCK5qJtURC-23" target="y7PeoEtyBzaCK5qJtURC-20">
          <mxGeometry width="50" height="50" relative="1" as="geometry">
            <mxPoint x="230" y="560" as="sourcePoint" />
            <mxPoint x="280" y="510" as="targetPoint" />
          </mxGeometry>
        </mxCell>
        <mxCell id="y7PeoEtyBzaCK5qJtURC-26" value="" style="endArrow=blockThin;html=1;rounded=0;endFill=1;entryX=0.466;entryY=0.86;entryDx=0;entryDy=0;entryPerimeter=0;fontSize=15;" edge="1" parent="1" target="y7PeoEtyBzaCK5qJtURC-21">
          <mxGeometry width="50" height="50" relative="1" as="geometry">
            <mxPoint x="210" y="500" as="sourcePoint" />
            <mxPoint x="290" y="520" as="targetPoint" />
            <Array as="points">
              <mxPoint x="250" y="500" />
            </Array>
          </mxGeometry>
        </mxCell>
        <mxCell id="y7PeoEtyBzaCK5qJtURC-27" value="" style="endArrow=blockThin;html=1;rounded=0;endFill=1;exitX=0.5;exitY=0;exitDx=0;exitDy=0;fontSize=15;" edge="1" parent="1" source="y7PeoEtyBzaCK5qJtURC-19">
          <mxGeometry width="50" height="50" relative="1" as="geometry">
            <mxPoint x="250" y="420" as="sourcePoint" />
            <mxPoint x="250" y="390" as="targetPoint" />
          </mxGeometry>
        </mxCell>
        <mxCell id="y7PeoEtyBzaCK5qJtURC-28" value="$$H_{A \rightarrow S}$$" style="text;html=1;align=center;verticalAlign=middle;whiteSpace=wrap;rounded=0;fontSize=15;" vertex="1" parent="1">
          <mxGeometry x="230.5" y="370" width="39" height="20" as="geometry" />
        </mxCell>
        <mxCell id="y7PeoEtyBzaCK5qJtURC-32" value="AVM" style="text;html=1;align=center;verticalAlign=middle;whiteSpace=wrap;rounded=0;fontSize=15;fontStyle=1" vertex="1" parent="1">
          <mxGeometry x="218" y="540" width="60" height="30" as="geometry" />
        </mxCell>
        <mxCell id="y7PeoEtyBzaCK5qJtURC-33" value="ATM" style="text;html=1;align=center;verticalAlign=middle;whiteSpace=wrap;rounded=0;fontSize=15;fontStyle=1" vertex="1" parent="1">
          <mxGeometry x="435" y="690" width="60" height="30" as="geometry" />
        </mxCell>
      </root>
    </mxGraphModel>
  </diagram>
</mxfile>
